<svg xmlns="http://www.w3.org/2000/svg" width="166.488" height="188.78" viewBox="0 0 166.488 188.78">
  <g id="Layer_2" data-name="Layer 2" transform="translate(2.854 -7.002)">
    <path id="Path_6" data-name="Path 6" d="M43.356,186.755s-12.589-34.543,13.769-34.838c14.9-1.427,48.459-2.577,60.559,3.98a8.037,8.037,0,0,0,3.338.843c17.131.787,21.458.886,24.8,3.444s3.421,20.913-23.842,21.583c-2.671.047-4.819,1.15-4.923,2.528,0,.111,0,.215,0,.32-.026,1.269,1.683,2.373,4.089,2.639,8.583.947,28.885,2.46,37.754-3.032a2.458,2.458,0,0,0,.918-.929c7.248-13.8,10.419-53.813-3.707-77.137C141.8,82.536,143.517,48.584,132.073,38.841,121,29.436,98.241,4.913,57.053.558a9.1,9.1,0,0,0-4.069.476c-1.164.449-1.9,1.132-2.035,1.879a11.576,11.576,0,0,0,2.027,8.236,1.551,1.551,0,0,1-.179,2.135,5.6,5.6,0,0,1-3.147,1.389c-11.707,1.808-35.108,6.993-35.441,25.267a2.178,2.178,0,0,1-1.192,1.7c-4.375,2.737-6.557,4.238-7.606,5.019a2.008,2.008,0,0,0-.966,1.507v4.767c-.021.89.825,1.727,2.253,2.227,2.492.861,7.248,2.024,15.116,2.239a7.228,7.228,0,0,1,4.149,1.23c13.948,11.4,13.614,14.682,3.66,30.379-10.3,16.238-52.643,69.3-11.444,99.163" transform="translate(-2.844 7)" fill="#0e0a0a" stroke="#060505" stroke-miterlimit="10" stroke-width="1"/>
    <ellipse id="Ellipse_2" data-name="Ellipse 2" cx="21.74" cy="5.58" rx="21.74" ry="5.58" transform="translate(58.656 162.519)" stroke="#060505" stroke-miterlimit="10" stroke-width="1"/>
    <path id="Path_7" data-name="Path 7" d="M103.65,281.614l4.139-12.406c1.759-4.315,13.7-3.1,12.316,1.245a8.4,8.4,0,0,1-.534,1.261c-4.154,8-3.461,9.9-15.864,9.9" transform="translate(14.604 -98.42)" fill="#020202" stroke="#060505" stroke-miterlimit="10" stroke-width="1"/>
  </g>
</svg>
