<svg xmlns="http://www.w3.org/2000/svg" viewBox="0 0 139.79 306.15"><defs><style>.cls-1{fill:#0e0a0a;}.cls-1,.cls-2,.cls-3{stroke:#060505;}.cls-1,.cls-2,.cls-3,.cls-4{stroke-miterlimit:10;}.cls-3{fill:#020202;}.cls-4{font-size:36px;fill:none;stroke:#fff;font-family:MyriadPro-Regular, Myriad Pro;}.cls-5{letter-spacing:-0.01em;}.cls-6{letter-spacing:-0.01em;}</style></defs><g id="Layer_2" data-name="Layer 2"><path class="cls-1" d="M36.45,303.31S25.89,247.15,48,246.67c12.5-2.32,40.65-4.19,50.8,6.47a4.48,4.48,0,0,0,2.8,1.37c14.37,1.28,18,1.44,20.8,5.6s2.87,34-20,35.09a4.28,4.28,0,0,0-4.13,4.11c0,.18,0,.35,0,.52a4.34,4.34,0,0,0,3.43,4.29c7.2,1.54,24.23,4,31.67-4.93a3.94,3.94,0,0,0,.77-1.51c6.08-22.43,8.74-87.49-3.11-125.41-12-38.4-10.56-93.6-20.16-109.44C101.58,47.54,82.49,7.67,47.94.59a4.3,4.3,0,0,0-5.12,3.83,33.4,33.4,0,0,0,1.7,13.39,4.36,4.36,0,0,1-2.79,5.73C31.91,26.48,12.28,34.91,12,64.62a4.44,4.44,0,0,1-1,2.77c-3.67,4.45-5.5,6.89-6.38,8.16A4.32,4.32,0,0,0,3.81,78v7.75A4.31,4.31,0,0,0,5.7,89.37c2.09,1.4,6.08,3.29,12.68,3.64a4.41,4.41,0,0,1,3.48,2c11.7,18.53,11.42,23.87,3.07,49.39-8.64,26.4-44.16,112.67-9.6,161.22"/><ellipse class="cls-2" cx="67.65" cy="253.15" rx="18.24" ry="4.08"/><path class="cls-3" d="M103.65,285.55l2.87-15.64c1.22-5.44,9.5-3.91,8.54,1.57a16.27,16.27,0,0,1-.37,1.59c-2.88,10.08-2.4,12.48-11,12.48"/><text class="cls-4" transform="translate(45.81 155.64)"><tspan class="cls-5">C</tspan><tspan x="20.63" y="0">a</tspan><tspan class="cls-6" x="37.98" y="0">f</tspan><tspan x="48.02" y="0">e </tspan><tspan x="0" y="43.2">Blu</tspan></text></g></svg>